<?xml version="1.0" encoding="UTF-8" standalone="no"?>
<!DOCTYPE svg PUBLIC "-//W3C//DTD SVG 1.1//EN" "http://www.w3.org/Graphics/SVG/1.1/DTD/svg11.dtd">
<svg width="100%" height="100%" viewBox="0 0 512 512" version="1.1" xmlns="http://www.w3.org/2000/svg" xmlns:xlink="http://www.w3.org/1999/xlink" xml:space="preserve" xmlns:serif="http://www.serif.com/" style="fill-rule:evenodd;clip-rule:evenodd;stroke-linejoin:round;stroke-miterlimit:2;">
    <g>
        <g transform="matrix(0.884687,0.466186,-0.466186,0.884687,70.390453,-140.354671)">
            <text x="318.906px" y="72.109px" style="font-family:'Arial-BoldMT', 'Arial', sans-serif;font-weight:700;font-size:83.333px;fill:rgb(255,0,0);">N</text>
        </g>
        <g transform="matrix(0.702883,0.711305,-0.711305,0.702883,182.208788,-234.951007)">
            <text x="372.344px" y="100.631px" style="font-family:'Arial-BoldMT', 'Arial', sans-serif;font-weight:700;font-size:83.333px;fill:rgb(255,0,0);">E</text>
        </g>
        <g transform="matrix(0.476212,0.87933,-0.87933,0.476212,339.111063,-288.528763)">
            <text x="411.745px" y="140.384px" style="font-family:'Arial-BoldMT', 'Arial', sans-serif;font-weight:700;font-size:83.333px;fill:rgb(255,0,0);">X</text>
        </g>
        <g transform="matrix(0.21447,0.976731,-0.976731,0.21447,529.499148,-278.785709)">
            <text x="438.071px" y="189.798px" style="font-family:'Arial-BoldMT', 'Arial', sans-serif;font-weight:700;font-size:83.333px;fill:rgb(255,0,0);">T</text>
        </g>
        <g transform="matrix(-0.166749,0.985999,-0.985999,-0.166749,783.897167,-136.341453)">
            <text x="449.558px" y="263.058px" style="font-family:'Arial-BoldMT', 'Arial', sans-serif;font-weight:700;font-size:83.333px;fill:rgb(255,0,0);">T</text>
        </g>
        <g transform="matrix(-0.441146,0.897435,-0.897435,-0.441146,917.955749,55.979103)">
            <text x="441.548px" y="313.806px" style="font-family:'Arial-BoldMT', 'Arial', sans-serif;font-weight:700;font-size:83.333px;fill:rgb(255,0,0);">U</text>
        </g>
        <g transform="matrix(-0.707107,0.707107,-0.707107,-0.707107,969.015656,335.542838)">
            <text x="415.015px" y="368.461px" style="font-family:'Arial-BoldMT', 'Arial', sans-serif;font-weight:700;font-size:83.333px;fill:rgb(255,0,0);">R</text>
        </g>
        <g transform="matrix(-0.882913,0.469536,-0.469536,-0.882913,894.288898,600.240759)">
            <text x="372.304px" y="411.623px" style="font-family:'Arial-BoldMT', 'Arial', sans-serif;font-weight:700;font-size:83.333px;fill:rgb(255,0,0);">N</text>
        </g>
    </g>
    <g transform="matrix(-1,-0,0,-1,512,512)">
        <g transform="matrix(0.884687,0.466186,-0.466186,0.884687,70.390453,-140.354671)">
            <text x="318.906px" y="72.109px" style="font-family:'Arial-BoldMT', 'Arial', sans-serif;font-weight:700;font-size:83.333px;fill:rgb(255,0,0);">N</text>
        </g>
        <g transform="matrix(0.702883,0.711305,-0.711305,0.702883,182.208788,-234.951007)">
            <text x="372.344px" y="100.631px" style="font-family:'Arial-BoldMT', 'Arial', sans-serif;font-weight:700;font-size:83.333px;fill:rgb(255,0,0);">E</text>
        </g>
        <g transform="matrix(0.476212,0.87933,-0.87933,0.476212,339.111063,-288.528763)">
            <text x="411.745px" y="140.384px" style="font-family:'Arial-BoldMT', 'Arial', sans-serif;font-weight:700;font-size:83.333px;fill:rgb(255,0,0);">X</text>
        </g>
        <g transform="matrix(0.21447,0.976731,-0.976731,0.21447,529.499148,-278.785709)">
            <text x="438.071px" y="189.798px" style="font-family:'Arial-BoldMT', 'Arial', sans-serif;font-weight:700;font-size:83.333px;fill:rgb(255,0,0);">T</text>
        </g>
        <g transform="matrix(-0.166749,0.985999,-0.985999,-0.166749,783.897167,-136.341453)">
            <text x="449.558px" y="263.058px" style="font-family:'Arial-BoldMT', 'Arial', sans-serif;font-weight:700;font-size:83.333px;fill:rgb(255,0,0);">T</text>
        </g>
        <g transform="matrix(-0.441146,0.897435,-0.897435,-0.441146,917.955749,55.979103)">
            <text x="441.548px" y="313.806px" style="font-family:'Arial-BoldMT', 'Arial', sans-serif;font-weight:700;font-size:83.333px;fill:rgb(255,0,0);">U</text>
        </g>
        <g transform="matrix(-0.707107,0.707107,-0.707107,-0.707107,969.015656,335.542838)">
            <text x="415.015px" y="368.461px" style="font-family:'Arial-BoldMT', 'Arial', sans-serif;font-weight:700;font-size:83.333px;fill:rgb(255,0,0);">R</text>
        </g>
        <g transform="matrix(-0.882913,0.469536,-0.469536,-0.882913,894.288898,600.240759)">
            <text x="372.304px" y="411.623px" style="font-family:'Arial-BoldMT', 'Arial', sans-serif;font-weight:700;font-size:83.333px;fill:rgb(255,0,0);">N</text>
        </g>
    </g>
</svg>
